<svg xmlns="http://www.w3.org/2000/svg" viewBox="0 0 1200 760">
<defs>
  <linearGradient id="bg" x1="0" y1="0" x2="1" y2="1"><stop stop-color="#fff"/><stop offset="1" stop-color="#fff8f5"/></linearGradient>
  <linearGradient id="rose" x1="0" y1="0" x2="1" y2="1"><stop stop-color="#efc8bb"/><stop offset="1" stop-color="#c96f79"/></linearGradient>
  <filter id="s" x="-20%" y="-20%" width="140%" height="140%"><feDropShadow dx="0" dy="18" stdDeviation="22" flood-color="#6d4439" flood-opacity=".16"/></filter>
</defs>
<rect x="26" y="26" width="1148" height="708" rx="36" fill="url(#bg)" filter="url(#s)"/>
<rect x="26" y="26" width="230" height="708" rx="36" fill="#fffaf7"/>
<text x="70" y="92" font-family="Georgia,serif" font-size="28" fill="#a86a59">✦ AESTRA</text>
<g font-family="Arial,sans-serif" font-size="18" fill="#776b67">
  <rect x="48" y="135" width="184" height="46" rx="12" fill="#f8e7e4"/><text x="74" y="165" fill="#b96570">Dashboard</text>
  <text x="74" y="222">Agenda</text><text x="74" y="274">Clienti</text><text x="74" y="326">Trattamenti</text>
  <text x="74" y="378">Marketing</text><text x="74" y="430">Magazzino</text><text x="74" y="482">Statistiche</text><text x="74" y="534">Daphne AI</text>
</g>
<text x="302" y="86" font-family="Arial,sans-serif" font-size="15" fill="#9d8e88">MARTEDÌ, 14 MAGGIO</text>
<text x="302" y="128" font-family="Georgia,serif" font-size="38" fill="#2b2523">Buongiorno Francesca ✦</text>
<g transform="translate(302 164)">
  <g><rect width="190" height="112" rx="18" fill="#fff" stroke="#eee1dc"/><text x="18" y="26" font-family="Arial" font-size="11" fill="#b17a73">FATTURATO OGGI</text><text x="18" y="64" font-family="Arial" font-size="26" font-weight="700" fill="#2b2523">€ 2.450</text><text x="18" y="88" font-family="Arial" font-size="11" fill="#7e726d">+16% rispetto a ieri</text></g>
  <g transform="translate(208)"><rect width="190" height="112" rx="18" fill="#fff" stroke="#eee1dc"/><text x="18" y="26" font-family="Arial" font-size="11" fill="#b17a73">APPUNTAMENTI</text><text x="18" y="64" font-family="Arial" font-size="26" font-weight="700" fill="#2b2523">28</text><text x="18" y="88" font-family="Arial" font-size="11" fill="#7e726d">6 nuovi clienti</text></g>
  <g transform="translate(416)"><rect width="190" height="112" rx="18" fill="#fff" stroke="#eee1dc"/><text x="18" y="26" font-family="Arial" font-size="11" fill="#b17a73">CLIENTI ATTIVI</text><text x="18" y="64" font-family="Arial" font-size="26" font-weight="700" fill="#2b2523">368</text><text x="18" y="88" font-family="Arial" font-size="11" fill="#7e726d">+12 questo mese</text></g>
  <g transform="translate(624)"><rect width="190" height="112" rx="18" fill="#fff0ec" stroke="#efd8d1"/><text x="18" y="26" font-family="Arial" font-size="11" fill="#b17a73">DAPHNE AI</text><text x="18" y="64" font-family="Arial" font-size="25" font-weight="700" fill="#2b2523">3 azioni</text><text x="18" y="88" font-family="Arial" font-size="11" fill="#7e726d">priorità di oggi</text></g>
</g>
<g transform="translate(302 308)">
  <rect width="490" height="350" rx="20" fill="#fff" stroke="#eee1dc"/>
  <text x="24" y="38" font-family="Arial" font-size="16" font-weight="700" fill="#2b2523">Agenda di oggi</text>
  <g font-family="Arial" font-size="14" fill="#2b2523">
    <line x1="24" y1="64" x2="464" y2="64" stroke="#f0e6e2"/>
    <text x="24" y="101" font-weight="700">09:00</text><text x="102" y="92" font-weight="700">Giulia Rossi</text><text x="102" y="114" font-size="12" fill="#8e827d">Trattamento viso</text><rect x="366" y="78" width="92" height="30" rx="10" fill="#edf5ef"/><text x="381" y="98" font-size="11" fill="#5f8064">Confermato</text>
    <line x1="24" y1="135" x2="464" y2="135" stroke="#f0e6e2"/>
    <text x="24" y="172" font-weight="700">11:00</text><text x="102" y="163" font-weight="700">Laura Bianchi</text><text x="102" y="185" font-size="12" fill="#8e827d">Massaggio relax</text><rect x="379" y="149" width="79" height="30" rx="10" fill="#fff2e7"/><text x="393" y="169" font-size="11" fill="#a67652">In arrivo</text>
    <line x1="24" y1="206" x2="464" y2="206" stroke="#f0e6e2"/>
    <text x="24" y="243" font-weight="700">14:30</text><text x="102" y="234" font-weight="700">Martina Verdi</text><text x="102" y="256" font-size="12" fill="#8e827d">Epilazione laser</text><rect x="389" y="220" width="69" height="30" rx="10" fill="#f0eafd"/><text x="404" y="240" font-size="11" fill="#75609b">In corso</text>
  </g>
</g>
<g transform="translate(816 308)">
  <rect width="320" height="350" rx="20" fill="#fff" stroke="#eee1dc"/>
  <text x="22" y="38" font-family="Arial" font-size="16" font-weight="700" fill="#2b2523">Andamento settimanale</text>
  <path d="M28 274 C72 254,70 208,120 226 S180 154,214 178 S267 94,296 108" fill="none" stroke="#cf7880" stroke-width="6" stroke-linecap="round"/>
  <path d="M28 274 C72 254,70 208,120 226 S180 154,214 178 S267 94,296 108 L296 305 L28 305 Z" fill="url(#rose)" opacity=".18"/>
</g>
</svg>