<svg xmlns="http://www.w3.org/2000/svg" viewBox="0 0 1200 900">
<defs>
  <radialGradient id="a" cx=".18" cy=".2"><stop stop-color="#fff"/><stop offset=".55" stop-color="#f5ddd5"/><stop offset="1" stop-color="#f5ddd5" stop-opacity="0"/></radialGradient>
  <radialGradient id="b" cx=".8" cy=".25"><stop stop-color="#f7c3b9"/><stop offset="1" stop-color="#f7c3b9" stop-opacity="0"/></radialGradient>
  <linearGradient id="l" x1="0" y1="0" x2="1" y2="1"><stop stop-color="#d37c83"/><stop offset="1" stop-color="#a85e67"/></linearGradient>
</defs>
<rect width="1200" height="900" fill="none"/>
<circle cx="250" cy="220" r="330" fill="url(#a)"/>
<circle cx="980" cy="210" r="310" fill="url(#b)" opacity=".42"/>
<g fill="none" stroke="url(#l)" stroke-opacity=".13">
  <path d="M70 780 C220 610 350 670 480 520 S760 390 1120 110"/>
  <path d="M0 700 C240 540 410 620 590 430 S870 300 1200 90"/>
  <path d="M100 860 C270 690 430 710 610 560 S900 410 1160 170"/>
</g>
<g fill="#c96f79" opacity=".16">
  <circle cx="196" cy="626" r="5"/><circle cx="452" cy="526" r="4"/><circle cx="702" cy="394" r="5"/><circle cx="988" cy="230" r="4"/>
</g>
</svg>