<svg xmlns="http://www.w3.org/2000/svg" viewBox="0 0 360 760">
<defs><linearGradient id="bg" x1="0" y1="0" x2="1" y2="1"><stop stop-color="#fffaf7"/><stop offset="1" stop-color="#f9e5df"/></linearGradient><filter id="s"><feDropShadow dx="0" dy="18" stdDeviation="20" flood-opacity=".24"/></filter></defs>
<rect x="22" y="18" width="316" height="724" rx="62" fill="#1d1919" filter="url(#s)"/>
<rect x="34" y="30" width="292" height="700" rx="52" fill="url(#bg)"/>
<rect x="126" y="30" width="108" height="30" rx="15" fill="#1d1919"/>
<text x="180" y="104" text-anchor="middle" font-family="Georgia,serif" font-size="24" fill="#a86a59">✦ AESTRA</text>
<text x="58" y="152" font-family="Arial" font-size="18" fill="#2b2523">Ciao Giulia</text>
<text x="58" y="194" font-family="Georgia,serif" font-size="34" fill="#2b2523">Il tuo benessere,</text>
<text x="58" y="230" font-family="Georgia,serif" font-size="34" fill="#2b2523">sempre con te.</text>
<rect x="52" y="270" width="256" height="116" rx="20" fill="#f8ded8"/>
<text x="70" y="300" font-family="Arial" font-size="11" fill="#a26f68">PROSSIMO APPUNTAMENTO</text>
<text x="70" y="337" font-family="Arial" font-size="19" font-weight="700" fill="#2b2523">Venerdì · 14:30</text>
<text x="70" y="365" font-family="Arial" font-size="14" fill="#756a66">Trattamento viso</text>
<g font-family="Arial" font-size="13" fill="#6e625e">
  <g transform="translate(52 420)"><rect width="120" height="100" rx="18" fill="#fff" stroke="#eaded9"/><text x="60" y="43" text-anchor="middle" font-size="24" fill="#c46f78">◫</text><text x="60" y="74" text-anchor="middle">Prenota</text></g>
  <g transform="translate(188 420)"><rect width="120" height="100" rx="18" fill="#fff" stroke="#eaded9"/><text x="60" y="43" text-anchor="middle" font-size="24" fill="#c46f78">✦</text><text x="60" y="74" text-anchor="middle">Pacchetti</text></g>
  <g transform="translate(52 536)"><rect width="120" height="100" rx="18" fill="#fff" stroke="#eaded9"/><text x="60" y="43" text-anchor="middle" font-size="24" fill="#c46f78">▣</text><text x="60" y="74" text-anchor="middle">Wallet</text></g>
  <g transform="translate(188 536)"><rect width="120" height="100" rx="18" fill="#fff" stroke="#eaded9"/><text x="60" y="43" text-anchor="middle" font-size="24" fill="#c46f78">♡</text><text x="60" y="74" text-anchor="middle">Profilo</text></g>
</g>
</svg>